<svg width="40" height="40" viewBox="0 0 40 40" fill="none" xmlns="http://www.w3.org/2000/svg">
<rect width="40" height="40" fill="#47299C"/>
<path fill-rule="evenodd" clip-rule="evenodd" d="M31.48 7.14408C31.8262 7.13479 32.3551 7.19977 32.6629 7.27404C32.961 7.3483 33.3937 7.50611 33.6149 7.61751C33.8457 7.71962 34.2785 8.04453 34.5863 8.3323C34.894 8.62007 35.2787 9.06566 35.4229 9.3163C35.5768 9.57622 35.7691 10.0311 35.8461 10.3374C35.9326 10.6438 36 11.1636 36 11.4978C36 11.832 35.9519 12.2869 35.8942 12.5189C35.8365 12.751 35.673 13.1873 35.5191 13.4937C35.3652 13.8 35.0383 14.2456 34.7978 14.4962C34.5574 14.7376 34.1631 15.0625 33.9034 15.211C33.6534 15.3688 33.1726 15.5823 32.8263 15.6844C32.4609 15.7866 31.9416 15.8608 31.5761 15.8608C31.2299 15.8608 30.7587 15.8144 30.5183 15.7587C30.2778 15.703 29.8451 15.5545 29.5566 15.4152C29.268 15.276 28.7776 14.9418 28.4698 14.654C28.0851 14.3106 27.7966 13.93 27.5754 13.4937C27.3927 13.1409 27.1908 12.5746 27.1331 12.2404C27.0465 11.7856 27.0465 11.4514 27.1234 10.8944C27.2004 10.3931 27.3446 9.93826 27.5658 9.50196C27.7902 9.06875 28.0916 8.68196 28.4698 8.34158C28.7776 8.05381 29.2777 7.71034 29.5854 7.57109C29.8835 7.43185 30.2971 7.28332 30.499 7.23691C30.6914 7.19049 31.1337 7.15336 31.48 7.14408V7.14408ZM29.4411 9.18634C29.4508 9.30702 29.5277 9.48339 29.6239 9.56694C29.72 9.65977 29.8931 9.73403 30.0182 9.73403C30.1336 9.73403 30.3163 9.65049 30.4221 9.54837C30.5279 9.44626 30.6144 9.27917 30.6144 9.17705C30.6144 9.07494 30.5279 8.90785 30.4221 8.80573C30.3163 8.70362 30.124 8.62007 29.9989 8.62007C29.8835 8.62007 29.7008 8.69434 29.6046 8.78717C29.5085 8.88 29.4315 9.05637 29.4411 9.18634ZM29.4989 11.0615C29.5277 11.1729 29.6912 11.47 29.8643 11.7299C30.0374 11.9805 30.3548 12.3054 30.5663 12.4447C30.7779 12.5746 31.1337 12.7324 31.3646 12.7881C31.5857 12.8438 32.0666 12.8903 32.4417 12.8903C32.8167 12.8903 33.2014 12.8531 33.3072 12.7974C33.413 12.7417 33.4995 12.6303 33.4995 12.5468C33.5091 12.454 33.4514 12.3333 33.3841 12.2683C33.3168 12.2126 32.8648 12.1476 32.3936 12.1291C31.7781 12.1105 31.4126 12.0455 31.1434 11.9155C30.8741 11.7856 30.6625 11.5628 30.4029 11.1543C30.1624 10.7644 29.9797 10.5695 29.8547 10.5695C29.7585 10.5695 29.6239 10.6345 29.5662 10.7088C29.5085 10.783 29.4796 10.9408 29.4989 11.0615V11.0615ZM34.0669 11.0337C34.0477 11.1079 34.0669 11.2657 34.1054 11.3864C34.1439 11.4978 34.2689 11.6185 34.3939 11.6463C34.5093 11.6742 34.7017 11.6742 34.8267 11.6463C34.9421 11.6185 35.0671 11.4978 35.1056 11.3864C35.144 11.2657 35.1633 11.1079 35.144 11.0337C35.1248 10.9594 35.0479 10.8201 34.9613 10.7273C34.8651 10.6345 34.7113 10.5602 34.5959 10.5695C34.4805 10.5695 34.3266 10.6438 34.24 10.7366C34.1631 10.8201 34.0862 10.9594 34.0669 11.0337V11.0337Z" fill="#FFB32C"/>
<path fill-rule="evenodd" clip-rule="evenodd" d="M19.9875 4.76761C20.3529 4.79546 20.9011 4.87901 21.1896 4.96255C21.4781 5.0461 21.9109 5.20391 22.1513 5.32459C22.3917 5.43599 22.7764 5.69591 23.0168 5.88157C23.2573 6.07651 23.6131 6.42927 23.815 6.66134C24.017 6.89342 24.3055 7.32044 24.4498 7.59893C24.6036 7.87742 24.7768 8.27659 24.8441 8.48081C24.9114 8.71289 24.9306 8.99138 24.8825 9.22345C24.8441 9.43696 24.6806 9.72474 24.5171 9.90111C24.3536 10.0775 24.0651 10.2539 23.8824 10.3096C23.6996 10.3653 23.3823 10.3838 23.1803 10.3467C22.988 10.3188 22.6899 10.1796 22.5168 10.0311C22.3533 9.89183 22.1321 9.59477 22.0359 9.3627C21.9301 9.13062 21.7378 8.78715 21.5935 8.58293C21.4493 8.38798 21.1415 8.11878 20.9011 7.98881C20.6607 7.85885 20.3048 7.71032 20.1029 7.67319C19.9105 7.63606 19.5836 7.63606 19.3816 7.68247C19.17 7.73817 18.8911 7.91455 18.6796 8.12806C18.4968 8.323 18.2372 8.73145 18.1218 9.03779C17.9871 9.37198 17.8813 9.89183 17.8525 10.3374C17.814 10.8573 17.8429 11.2564 17.9583 11.6834C18.0448 12.0176 18.266 12.5932 18.4488 12.9645C18.6603 13.373 18.9777 13.8278 19.2951 14.1249C19.5643 14.3941 20.0067 14.719 20.276 14.8397C20.6414 15.016 20.9107 15.0717 21.3819 15.0717C21.8339 15.0625 22.1225 15.0068 22.4206 14.8582C22.6514 14.7376 22.9784 14.4498 23.1803 14.1713C23.3919 13.9021 23.6804 13.6422 23.8535 13.5679C24.0266 13.5029 24.3344 13.4472 24.5267 13.4472C24.7479 13.4472 25.0172 13.5215 25.2191 13.6514C25.4019 13.7721 25.6327 13.9671 25.7288 14.097C25.8539 14.2456 25.9212 14.4962 25.9308 14.7933C25.9404 15.1553 25.8827 15.3595 25.6615 15.7216C25.5076 15.9722 25.1518 16.4085 24.8729 16.6777C24.5652 16.9655 24.0939 17.2904 23.6612 17.4853C23.2284 17.6896 22.6899 17.8474 22.1994 17.9216C21.6031 18.0052 21.2665 18.0052 20.6799 17.9216C20.276 17.8566 19.6893 17.7174 19.3816 17.606C19.0835 17.4946 18.5065 17.1883 18.1122 16.9283C17.6986 16.6591 17.1505 16.1764 16.8331 15.8051C16.5157 15.4431 16.0637 14.7654 15.7945 14.2363C15.5348 13.7257 15.2367 12.9924 15.1405 12.6118C15.0347 12.2311 14.9289 11.5999 14.8905 11.2193C14.8424 10.8016 14.8616 10.1889 14.9385 9.6876C14.9962 9.23274 15.1694 8.53651 15.304 8.15591C15.4482 7.7753 15.7175 7.20904 15.9002 6.91198C16.083 6.61493 16.4773 6.16006 16.7658 5.89085C17.0543 5.63093 17.5063 5.31531 17.7756 5.18534C18.0352 5.06467 18.4968 4.90685 18.7854 4.84187C19.0835 4.77689 19.6124 4.74904 19.9875 4.76761V4.76761ZM6.20629 20.4095C6.36016 20.4095 6.58135 20.4466 6.71599 20.5023C6.85063 20.5487 7.18723 20.7715 7.46612 20.9943C7.7354 21.2171 8.22586 21.4956 8.54323 21.6163C9.05293 21.8205 9.2645 21.8391 10.3224 21.8391C11.3418 21.8298 11.6591 21.7926 12.39 21.5791C12.8613 21.4399 13.7749 21.115 14.4096 20.8551C15.2655 20.5116 15.6502 20.4002 15.9002 20.428C16.083 20.4559 16.3811 20.558 16.5542 20.6694C16.7177 20.7808 16.9293 21.0129 17.0158 21.1707C17.1024 21.3378 17.1697 21.6441 17.1697 21.8483C17.1697 22.0526 17.1024 22.3496 17.0254 22.4982C16.9485 22.6467 16.8042 22.8509 16.7081 22.9345C16.6023 23.018 16.1599 23.2594 15.7079 23.4636C15.2559 23.6678 14.4385 23.9742 13.8807 24.1505C13.3229 24.3269 12.4574 24.5404 11.9573 24.624C11.4572 24.7075 10.9475 24.7725 10.8321 24.7725C10.6205 24.7725 10.5917 24.8653 10.3224 26.2578C10.1685 27.0747 9.98578 28.1515 9.92808 28.6435C9.87999 29.1448 9.81267 29.7575 9.79344 30.0174C9.76459 30.2866 9.64918 30.6208 9.52416 30.8064C9.40876 30.9828 9.15872 31.2056 8.97599 31.2892C8.79327 31.382 8.48552 31.4563 8.3028 31.4563C8.12008 31.4563 7.7931 31.3634 7.59114 31.2427C7.38918 31.1314 7.13914 30.89 7.04297 30.7136C6.92116 30.497 6.86025 30.1938 6.86025 29.8039C6.86025 29.4883 6.92757 28.7363 7.0045 28.1329C7.09106 27.5388 7.26416 26.4991 7.40842 25.84C7.54306 25.1809 7.66808 24.5868 7.68731 24.5404C7.70655 24.4847 7.38918 24.2898 6.98527 24.1041C6.57174 23.9092 5.9851 23.5564 5.67735 23.3151C5.33114 23.0366 5.04263 22.7117 4.91761 22.4517C4.76374 22.1361 4.73489 21.9412 4.78297 21.6348C4.81182 21.4213 4.94646 21.115 5.06187 20.9572C5.18689 20.7901 5.43693 20.6044 5.61965 20.5394C5.80238 20.4745 6.06204 20.4188 6.21591 20.4095H6.20629ZM26.1808 27.1861C26.4213 27.1861 26.8059 27.2418 27.0464 27.3253C27.2868 27.3996 27.6715 27.6224 27.9119 27.8173C28.1523 28.0123 28.4793 28.4207 28.6524 28.7271C28.8159 29.0241 29.0371 29.544 29.1236 29.8781C29.239 30.2959 29.2967 30.825 29.2967 31.5955C29.2871 32.4495 29.239 32.9137 29.0659 33.5913C28.8736 34.3247 28.7774 34.5289 28.4985 34.8167C28.2677 35.0395 28.0273 35.1695 27.7676 35.2159C27.5561 35.253 27.2291 35.2437 27.0464 35.188C26.8636 35.1323 26.5655 34.9374 26.402 34.761C26.2097 34.5661 26.0654 34.2876 26.027 34.0741C25.9885 33.8606 26.0462 33.4614 26.1712 32.988C26.277 32.5795 26.3732 31.9761 26.3732 31.6419C26.3732 31.3077 26.3251 30.8714 26.277 30.6672C26.2289 30.463 26.1424 30.2495 26.0943 30.2031C26.027 30.1381 25.825 30.1938 25.4884 30.3609C25.2095 30.5094 24.8729 30.6951 24.4979 30.9735L24.9595 31.7719C25.2672 32.3289 25.4115 32.6816 25.4115 32.9137C25.4115 33.1086 25.3345 33.415 25.2384 33.5913C25.1518 33.7677 24.921 34.0091 24.7383 34.1298C24.4979 34.2783 24.2671 34.334 23.9208 34.334C23.6323 34.334 23.3342 34.269 23.1803 34.1669C23.0361 34.0833 22.8245 33.8791 22.7187 33.7306C22.6033 33.5821 22.3436 33.1179 22.1225 32.7095C21.9109 32.301 21.5839 31.5305 21.4012 30.9921C21.2088 30.4537 21.0453 29.8039 21.0165 29.5532C20.978 29.1912 21.0165 29.0055 21.1992 28.6806C21.3339 28.4393 21.5551 28.2072 21.757 28.1051C21.9397 28.003 22.2571 27.9287 22.4591 27.9287C22.6514 27.9287 22.9303 27.9937 23.0842 28.068C23.3246 28.1886 23.3823 28.1794 24.017 27.8637C24.3921 27.6781 24.9306 27.446 25.2191 27.3625C25.5076 27.2696 25.9404 27.1954 26.1808 27.1861V27.1861ZM7.71616 5.83516C7.8508 5.83516 8.17778 5.93727 8.43744 6.06723C8.70672 6.19719 9.21642 6.51281 9.59148 6.78202C9.95693 7.05123 10.6782 7.67319 11.1783 8.15591C11.6784 8.63862 12.4381 9.48338 12.8613 10.0218C13.2844 10.5695 13.8518 11.4235 14.1211 11.9248C14.4 12.4354 14.7077 13.0945 14.8135 13.4008C14.9193 13.7071 15.0636 14.2084 15.1213 14.5148C15.1886 14.8304 15.2174 15.4709 15.1982 16C15.1694 16.6406 15.0828 17.1047 14.9385 17.4853C14.8231 17.7917 14.5731 18.2744 14.3808 18.5529C14.1884 18.8314 13.8326 19.2491 13.5922 19.4719C13.3517 19.6947 12.9094 20.0289 12.6208 20.2053C12.3323 20.3909 11.8515 20.6137 11.563 20.7065C11.2456 20.8179 10.7455 20.8922 10.3128 20.8922C9.84152 20.9015 9.38952 20.8458 9.01446 20.7251C8.6971 20.6323 8.17778 20.3816 7.86042 20.1681C7.54306 19.9639 7.07182 19.5462 6.82178 19.2398C6.57174 18.9428 6.23514 18.4415 6.08127 18.1351C5.9274 17.8288 5.72544 17.309 5.63889 16.9748C5.5331 16.5663 5.49463 16.13 5.52348 15.6287C5.55233 15.0625 5.62927 14.7468 5.85046 14.292C6.00433 13.9671 6.28323 13.5679 6.46595 13.4008C6.65829 13.2337 6.96603 13.0759 7.18723 13.0388C7.41803 12.9924 7.70655 13.0016 7.9085 13.0666C8.09123 13.1223 8.3605 13.2801 8.50476 13.4194C8.64901 13.5679 8.8125 13.7907 8.86059 13.9299C8.91829 14.0785 8.96637 14.3105 8.96637 14.4684C8.96637 14.6262 8.84135 14.9882 8.68748 15.276C8.4182 15.7773 8.40859 15.8422 8.50476 16.2785C8.57208 16.5292 8.74518 16.9283 8.90867 17.1604C9.07216 17.3832 9.36067 17.671 9.5434 17.7917C9.75497 17.9216 10.0242 18.0052 10.2647 17.9959C10.5339 17.9959 10.784 17.9123 11.1206 17.6988C11.3802 17.5317 11.7168 17.2254 11.8611 17.0212C12.015 16.817 12.1881 16.4363 12.2458 16.1857C12.3323 15.8144 12.3227 15.5916 12.1977 15.0253C12.1111 14.6447 11.8611 13.9764 11.6399 13.5401C11.4091 13.1037 10.9667 12.3982 10.6494 11.9619C10.332 11.5349 9.6588 10.783 9.15871 10.291C8.65863 9.799 7.89889 9.15847 7.47574 8.87998C7.05259 8.59221 6.62944 8.28587 6.54289 8.18376C6.45633 8.09093 6.34093 7.84957 6.30246 7.64534C6.25438 7.44112 6.23514 7.14406 6.27361 6.99553C6.30246 6.83772 6.40825 6.59636 6.51404 6.45712C6.61982 6.30859 6.86986 6.11365 7.09106 6.01153C7.30263 5.9187 7.58152 5.83516 7.71616 5.83516V5.83516ZM27.8638 17.3461C28.3543 17.3461 28.8063 17.4018 29.114 17.5039C29.3929 17.5967 29.7968 17.8474 30.0757 18.098C30.3642 18.3486 30.6431 18.7107 30.7778 18.9985C30.8932 19.2677 31.0182 19.7225 31.0567 20.0103C31.1047 20.4559 31.0759 20.6323 30.9124 20.985C30.7489 21.3378 30.6143 21.4677 30.2969 21.6163C30.0661 21.7184 29.768 21.8019 29.6237 21.8019C29.4699 21.8019 29.2102 21.7462 29.0467 21.6812C28.8736 21.607 28.6139 21.4306 28.4793 21.2821C28.3447 21.1336 28.21 20.8365 28.1716 20.6137C28.1139 20.2609 28.085 20.2238 27.8446 20.2424C27.6426 20.2609 27.5272 20.3538 27.4118 20.5951C27.2676 20.8643 27.2579 20.985 27.3445 21.2914C27.4214 21.5606 27.6426 21.8391 28.1427 22.3125C28.5851 22.7302 29.1236 23.1201 29.643 23.3893C30.095 23.6307 30.7874 24.067 31.1817 24.3733C31.576 24.6797 32.0953 25.1624 32.3357 25.4502C32.5762 25.7472 32.932 26.2392 33.1339 26.5548C33.3359 26.8797 33.6244 27.4274 33.7783 27.7895C33.9322 28.1515 34.1245 28.8384 34.2207 29.3212C34.3264 29.9338 34.3553 30.4444 34.3168 30.9921C34.288 31.4284 34.1918 32.0132 34.1149 32.2917C34.0379 32.5702 33.836 33.0715 33.6725 33.4057C33.509 33.7399 33.2686 34.1483 33.1243 34.3247C32.9801 34.5011 32.7204 34.7053 32.5569 34.7703C32.3838 34.8353 32.0953 34.891 31.9318 34.891C31.7587 34.891 31.4606 34.8167 31.2779 34.7239C31.0951 34.6403 30.8451 34.4175 30.7201 34.2412C30.5662 34.0184 30.5085 33.7863 30.5085 33.4707C30.5085 33.1365 30.6047 32.858 30.9028 32.3103C31.249 31.6883 31.3067 31.4934 31.3452 30.8529C31.3836 30.333 31.3452 29.9338 31.2394 29.5254C31.1528 29.2098 30.9605 28.7085 30.8066 28.4114C30.6624 28.1237 30.3162 27.6317 30.0565 27.3253C29.7968 27.019 29.3448 26.6198 29.0563 26.4341C28.7678 26.2485 28.1716 25.8957 27.7292 25.6451C27.2868 25.3945 26.5944 24.9025 26.2001 24.5404C25.7962 24.1784 25.3057 23.64 25.1037 23.3336C24.8922 23.0273 24.6421 22.4889 24.5267 22.1268C24.3728 21.6256 24.3344 21.3006 24.3632 20.7344C24.4017 20.1124 24.4594 19.8803 24.7575 19.2955C24.9499 18.9149 25.2961 18.4229 25.5269 18.2094C25.7577 17.9866 26.1905 17.7081 26.5174 17.5782C26.9598 17.4018 27.2676 17.3461 27.8638 17.3461V17.3461ZM21.4493 21.5327C22.0551 21.5234 22.2186 21.5606 22.7379 21.8205C23.1515 22.034 23.4496 22.2754 23.6996 22.591C23.892 22.8416 24.1132 23.2408 24.1805 23.4729C24.2382 23.7049 24.2959 24.0763 24.2959 24.3083C24.2959 24.5404 24.2382 24.9117 24.1709 25.1438C24.1036 25.3759 23.9305 25.7286 23.7862 25.9329C23.6419 26.1371 23.3438 26.4434 23.1226 26.6012C22.9014 26.7683 22.536 26.954 22.3148 27.0097C22.084 27.0654 21.6897 27.1211 21.4204 27.1211C21.1608 27.1211 20.728 27.0561 20.4587 26.9726C20.1991 26.889 19.7855 26.6662 19.5547 26.4713C19.3239 26.2763 19.0354 25.9514 18.9104 25.7472C18.7853 25.543 18.6315 25.1252 18.5738 24.8189C18.4872 24.3548 18.4968 24.1598 18.6315 23.6585C18.718 23.3243 18.9296 22.8695 19.1027 22.6374C19.2758 22.4053 19.5836 22.1083 19.7951 21.9783C19.9971 21.8483 20.3048 21.6905 20.4587 21.6348C20.6222 21.5791 21.0646 21.5327 21.4493 21.5327V21.5327ZM20.6511 24.2898C20.6511 24.4662 20.7376 24.6611 20.8915 24.8096C21.0453 24.9674 21.2377 25.0603 21.4204 25.0603C21.5935 25.0603 21.7955 24.9674 21.9205 24.8468C22.068 24.7044 22.1417 24.5157 22.1417 24.2805C22.1417 24.0113 22.084 23.8999 21.882 23.7514C21.7282 23.64 21.5166 23.5564 21.4012 23.5657C21.2858 23.5657 21.0742 23.6678 20.9203 23.7792C20.7472 23.9277 20.6607 24.0948 20.6511 24.2898ZM15.7945 25.7286C16.5734 25.7472 16.8042 25.7936 17.3332 26.035C17.6794 26.1835 18.1314 26.4341 18.3333 26.5827C18.5449 26.7405 18.9008 27.1118 19.1412 27.4181C19.4008 27.7709 19.6316 28.2165 19.7567 28.6249C19.9202 29.1448 19.949 29.4511 19.9202 30.1566C19.8817 30.9271 19.8336 31.1221 19.5355 31.7347C19.3143 32.1896 19.0162 32.6073 18.6699 32.9323C18.3526 33.2479 17.891 33.5542 17.4774 33.7492C16.9581 33.9905 16.6311 34.0741 16.0349 34.1205C15.5925 34.1483 15.0539 34.1298 14.7654 34.0648C14.4865 34.0091 14.0057 33.8513 13.7076 33.7027C13.3998 33.5635 12.9094 33.22 12.6208 32.9415C12.2842 32.6259 11.9573 32.1989 11.7745 31.8276C11.6111 31.4934 11.4187 30.9364 11.361 30.5744C11.2745 30.0824 11.2745 29.7667 11.361 29.2747C11.4187 28.9127 11.6014 28.3743 11.7553 28.068C11.8996 27.7616 12.1977 27.3253 12.4093 27.0932C12.6112 26.8612 13.0151 26.527 13.3036 26.3506C13.5922 26.1742 14.0634 25.9607 14.3519 25.8679C14.7462 25.7472 15.1213 25.7101 15.7945 25.7286ZM14.4288 29.3212C14.3327 29.4975 14.2557 29.776 14.2557 29.9246C14.2557 30.0731 14.3327 30.3516 14.4288 30.528C14.5154 30.7043 14.7462 30.9457 14.9289 31.0664C15.1116 31.1778 15.4098 31.2706 15.5829 31.2706C15.7464 31.2706 16.0445 31.1963 16.2368 31.1035C16.4388 31.02 16.6696 30.8436 16.7562 30.7136C16.8523 30.5837 16.9581 30.333 16.9966 30.1566C17.0447 29.9153 17.0158 29.7111 16.8619 29.3861C16.7369 29.1169 16.535 28.8756 16.3522 28.7642C16.1695 28.6621 15.8618 28.5785 15.6406 28.5785C15.4002 28.5785 15.1309 28.6528 14.9193 28.792C14.7366 28.9034 14.5154 29.1448 14.4288 29.3212Z" fill="white"/>
</svg>
