<svg width="41" height="40" viewBox="0 0 41 40" fill="none" xmlns="http://www.w3.org/2000/svg">
<path fill-rule="evenodd" clip-rule="evenodd" d="M34.8501 3.93C35.2828 3.9184 35.944 3.99963 36.3287 4.09246C36.7013 4.18529 37.2423 4.38255 37.5188 4.52179C37.8073 4.64944 38.3483 5.05557 38.7329 5.41528C39.1176 5.775 39.5985 6.33198 39.7788 6.64528C39.9711 6.97019 40.2116 7.53877 40.3077 7.9217C40.4159 8.30462 40.5001 8.95443 40.5001 9.37217C40.5001 9.7899 40.44 10.3585 40.3678 10.6486C40.2957 10.9387 40.0913 11.4841 39.899 11.867C39.7067 12.2499 39.2979 12.8069 38.9974 13.1202C38.6969 13.4219 38.204 13.828 37.8794 14.0137C37.5669 14.2109 36.9658 14.4778 36.533 14.6055C36.0762 14.7331 35.4271 14.8259 34.9703 14.8259C34.5375 14.8259 33.9485 14.7679 33.6479 14.6983C33.3474 14.6287 32.8065 14.443 32.4458 14.269C32.0852 14.0949 31.4721 13.6772 31.0874 13.3174C30.6066 12.8881 30.2459 12.4124 29.9694 11.867C29.741 11.426 29.4886 10.7182 29.4165 10.3005C29.3083 9.73188 29.3083 9.31415 29.4044 8.61792C29.5006 7.99132 29.6809 7.42273 29.9574 6.87736C30.2379 6.33585 30.6146 5.85236 31.0874 5.42689C31.4721 5.06717 32.0972 4.63783 32.4819 4.46378C32.8545 4.28972 33.3715 4.10406 33.6239 4.04604C33.8643 3.98802 34.4173 3.94161 34.8501 3.93ZM32.3016 6.48283C32.3136 6.63368 32.4097 6.85415 32.53 6.95858C32.6502 7.07462 32.8666 7.16745 33.0228 7.16745C33.1671 7.16745 33.3955 7.06302 33.5277 6.93538C33.66 6.80773 33.7682 6.59887 33.7682 6.47123C33.7682 6.34358 33.66 6.13472 33.5277 6.00708C33.3955 5.87943 33.1551 5.775 32.9988 5.775C32.8545 5.775 32.6261 5.86783 32.5059 5.98387C32.3857 6.09991 32.2895 6.32038 32.3016 6.48283ZM32.3737 8.82679C32.4097 8.96603 32.6141 9.33735 32.8305 9.66226C33.0469 9.97556 33.4436 10.3817 33.708 10.5557C33.9725 10.7182 34.4173 10.9155 34.7058 10.9851C34.9823 11.0547 35.5834 11.1127 36.0522 11.1127C36.521 11.1127 37.0019 11.0663 37.1341 10.9967C37.2663 10.9271 37.3745 10.7878 37.3745 10.6834C37.3866 10.5674 37.3144 10.4165 37.2303 10.3353C37.1461 10.2657 36.5811 10.1844 35.9921 10.1612C35.2227 10.138 34.7659 10.0568 34.4293 9.89434C34.0927 9.73188 33.8283 9.45339 33.5037 8.94283C33.2032 8.45547 32.9747 8.21179 32.8185 8.21179C32.6983 8.21179 32.53 8.29302 32.4578 8.38585C32.3857 8.47868 32.3496 8.67594 32.3737 8.82679ZM38.0838 8.79198C38.0597 8.88481 38.0838 9.08207 38.1319 9.23292C38.18 9.37217 38.3362 9.52301 38.4925 9.55783C38.6368 9.59264 38.8772 9.59264 39.0335 9.55783C39.1777 9.52301 39.334 9.37217 39.3821 9.23292C39.4302 9.08207 39.4542 8.88481 39.4302 8.79198C39.4061 8.69915 39.31 8.52509 39.2018 8.40905C39.0816 8.29302 38.8892 8.20019 38.745 8.21179C38.6007 8.21179 38.4084 8.30462 38.3002 8.42066C38.204 8.52509 38.1078 8.69915 38.0838 8.79198Z" fill="#FFB32C"/>
<path fill-rule="evenodd" clip-rule="evenodd" d="M20.4846 0.959451C20.9414 0.994262 21.6266 1.0987 21.9872 1.20313C22.3479 1.30756 22.8888 1.50483 23.1894 1.65568C23.4899 1.79492 23.9708 2.11983 24.2713 2.3519C24.5718 2.59558 25.0166 3.03652 25.2691 3.32662C25.5215 3.61671 25.8821 4.15048 26.0625 4.4986C26.2548 4.84671 26.4712 5.34567 26.5553 5.60095C26.6395 5.89105 26.6635 6.23916 26.6034 6.52926C26.5553 6.79614 26.351 7.15586 26.1466 7.37633C25.9422 7.5968 25.5816 7.81727 25.3532 7.8869C25.1248 7.95652 24.7281 7.97973 24.4757 7.93331C24.2352 7.8985 23.8626 7.72444 23.6462 7.53878C23.4418 7.36473 23.1653 6.99341 23.0451 6.70331C22.9129 6.41322 22.6725 5.98388 22.4921 5.7286C22.3118 5.48492 21.9271 5.14841 21.6266 4.98596C21.3261 4.8235 20.8813 4.63784 20.6288 4.59143C20.3884 4.54501 19.9797 4.54501 19.7272 4.60303C19.4628 4.67265 19.1142 4.89313 18.8497 5.16001C18.6213 5.40369 18.2967 5.91426 18.1525 6.29718C17.9842 6.71492 17.8519 7.36473 17.8159 7.92171C17.7678 8.57152 17.8038 9.07048 17.9481 9.60425C18.0563 10.022 18.3328 10.7414 18.5612 11.2056C18.8257 11.7161 19.2224 12.2847 19.6191 12.656C19.9557 12.9925 20.5086 13.3987 20.8452 13.5495C21.302 13.77 21.6386 13.8396 22.2277 13.8396C22.7927 13.828 23.1533 13.7584 23.526 13.5727C23.8145 13.4219 24.2232 13.0622 24.4757 12.7141C24.7401 12.3776 25.1008 12.0526 25.3171 11.9598C25.5335 11.8786 25.9182 11.809 26.1586 11.809C26.4351 11.809 26.7717 11.9018 27.0242 12.0642C27.2526 12.2151 27.5411 12.4588 27.6613 12.6212C27.8176 12.8069 27.9017 13.1202 27.9137 13.4915C27.9258 13.9441 27.8536 14.1993 27.5771 14.6519C27.3848 14.9652 26.94 15.5106 26.5914 15.8471C26.2067 16.2068 25.6177 16.6129 25.0767 16.8566C24.5358 17.1119 23.8626 17.3091 23.2495 17.402C22.5042 17.5064 22.0834 17.5064 21.3501 17.402C20.8452 17.3208 20.1119 17.1467 19.7272 17.0075C19.3546 16.8682 18.6333 16.4853 18.1404 16.1604C17.6235 15.8239 16.9383 15.2205 16.5416 14.7563C16.1449 14.3038 15.5799 13.4567 15.2433 12.7953C14.9187 12.1571 14.5461 11.2404 14.4259 10.7646C14.2936 10.2889 14.1614 9.49982 14.1133 9.02406C14.0532 8.50189 14.0773 7.73605 14.1734 7.10944C14.2455 6.54086 14.4619 5.67058 14.6302 5.19482C14.8105 4.71907 15.1471 4.01124 15.3755 3.63992C15.604 3.2686 16.0968 2.70001 16.4575 2.36351C16.8181 2.0386 17.3831 1.64407 17.7197 1.48162C18.0443 1.33077 18.6213 1.13351 18.9819 1.05228C19.3546 0.971054 20.0158 0.936243 20.4846 0.959451ZM3.25811 20.5118C3.45045 20.5118 3.72694 20.5582 3.89523 20.6278C4.06353 20.6858 4.48428 20.9643 4.83289 21.2428C5.16949 21.5213 5.78257 21.8694 6.17928 22.0203C6.8164 22.2756 7.08087 22.2988 8.40321 22.2988C9.67747 22.2872 10.0742 22.2407 10.9878 21.9739C11.5768 21.7998 12.7188 21.3937 13.5123 21.0688C14.5821 20.6394 15.063 20.5002 15.3755 20.535C15.604 20.5698 15.9766 20.6974 16.193 20.8367C16.3974 20.9759 16.6618 21.266 16.77 21.4633C16.8782 21.6722 16.9624 22.0551 16.9624 22.3104C16.9624 22.5657 16.8782 22.937 16.782 23.1226C16.6859 23.3083 16.5055 23.5636 16.3853 23.668C16.2531 23.7724 15.7001 24.0741 15.1351 24.3294C14.5701 24.5847 13.5483 24.9676 12.8511 25.1881C12.1538 25.4086 11.0719 25.6755 10.4468 25.7799C9.82172 25.8843 9.18459 25.9656 9.04034 25.9656C8.77587 25.9656 8.73981 26.0816 8.40321 27.8222C8.21087 28.8433 7.98247 30.1893 7.91034 30.8043C7.85023 31.4309 7.76608 32.1968 7.74204 32.5217C7.70598 32.8582 7.56172 33.2759 7.40545 33.508C7.26119 33.7285 6.94864 34.007 6.72023 34.1114C6.49183 34.2274 6.10715 34.3203 5.87874 34.3203C5.65034 34.3203 5.24162 34.2042 4.98917 34.0534C4.73672 33.9141 4.42417 33.6124 4.30396 33.392C4.15169 33.1212 4.07555 32.7421 4.07555 32.2548C4.07555 31.8603 4.1597 30.9204 4.25587 30.1661C4.36406 29.4235 4.58045 28.1239 4.76077 27.3C4.92906 26.4761 5.08534 25.7335 5.10938 25.6755C5.13343 25.6058 4.73672 25.3622 4.23183 25.1301C3.71492 24.8864 2.98162 24.4455 2.59694 24.1438C2.16417 23.7957 1.80353 23.3895 1.64726 23.0646C1.45492 22.6701 1.41885 22.4264 1.47896 22.0435C1.51502 21.7766 1.68332 21.3937 1.82758 21.1964C1.98385 20.9875 2.29641 20.7555 2.52481 20.6742C2.75321 20.593 3.07779 20.5234 3.27013 20.5118H3.25811ZM28.2263 28.9825C28.5268 28.9825 29.0077 29.0522 29.3082 29.1566C29.6087 29.2494 30.0896 29.5279 30.3901 29.7716C30.6906 30.0153 31.0994 30.5258 31.3158 30.9088C31.5201 31.2801 31.7966 31.9299 31.9048 32.3476C32.0491 32.8698 32.1212 33.5312 32.1212 34.4943C32.1092 35.5619 32.0491 36.1421 31.8327 36.9891C31.5922 37.9058 31.472 38.1611 31.1234 38.5208C30.8349 38.7993 30.5344 38.9618 30.2098 39.0198C29.9453 39.0662 29.5366 39.0546 29.3082 38.985C29.0798 38.9154 28.7071 38.6717 28.5028 38.4512C28.2624 38.2075 28.082 37.8594 28.0339 37.5925C27.9859 37.3256 28.058 36.8267 28.2143 36.2349C28.3465 35.7243 28.4667 34.9701 28.4667 34.5523C28.4667 34.1346 28.4066 33.5892 28.3465 33.3339C28.2864 33.0787 28.1782 32.8118 28.1181 32.7538C28.0339 32.6725 27.7815 32.7421 27.3608 32.951C27.0121 33.1367 26.5914 33.3688 26.1226 33.7169L26.6996 34.7148C27.0843 35.411 27.2646 35.852 27.2646 36.1421C27.2646 36.3857 27.1684 36.7687 27.0482 36.9891C26.94 37.2096 26.6515 37.5113 26.4231 37.6621C26.1226 37.8478 25.8341 37.9174 25.4013 37.9174C25.0407 37.9174 24.668 37.8362 24.4757 37.7086C24.2953 37.6041 24.0309 37.3488 23.8986 37.1632C23.7544 36.9775 23.4298 36.3973 23.1533 35.8868C22.8888 35.3762 22.4801 34.4131 22.2517 33.7401C22.0113 33.0671 21.8069 32.2548 21.7709 31.9415C21.7228 31.4889 21.7709 31.2569 21.9993 30.8507C22.1676 30.549 22.4441 30.2589 22.6965 30.1313C22.9249 30.0037 23.3216 29.9108 23.5741 29.9108C23.8145 29.9108 24.1631 29.9921 24.3554 30.0849C24.656 30.2357 24.7281 30.2241 25.5215 29.8296C25.9903 29.5975 26.6635 29.3074 27.0242 29.203C27.3848 29.087 27.9258 28.9941 28.2263 28.9825ZM5.14545 2.29388C5.31374 2.29388 5.72247 2.42152 6.04704 2.58398C6.38364 2.74643 7.02077 3.14096 7.48959 3.47747C7.9464 3.81398 8.848 4.59143 9.4731 5.19482C10.0982 5.79822 11.0479 6.85416 11.5768 7.52718C12.1058 8.2118 12.815 9.27935 13.1516 9.90595C13.5002 10.5442 13.8849 11.368 14.0171 11.7509C14.1494 12.1339 14.3297 12.7605 14.4018 13.1434C14.486 13.5379 14.522 14.3386 14.498 15C14.4619 15.8007 14.3537 16.3808 14.1734 16.8566C14.0292 17.2395 13.7166 17.8429 13.4762 18.191C13.2358 18.5391 12.791 19.0613 12.4904 19.3398C12.1899 19.6183 11.6369 20.036 11.2763 20.2565C10.9157 20.4886 10.3146 20.7671 9.95396 20.8831C9.55725 21.0224 8.93215 21.1152 8.39119 21.1152C7.80215 21.1268 7.23715 21.0572 6.76832 20.9063C6.37162 20.7903 5.72247 20.477 5.32577 20.2101C4.92906 19.9548 4.34002 19.4326 4.02747 19.0497C3.71492 18.6784 3.29417 18.0518 3.10183 17.6689C2.90949 17.2859 2.65704 16.6361 2.54885 16.2184C2.41662 15.7078 2.36853 15.1625 2.4046 14.5358C2.44066 13.828 2.53683 13.4335 2.81332 12.8649C3.00566 12.4588 3.35428 11.9598 3.58268 11.7509C3.82311 11.5421 4.20779 11.3448 4.48428 11.2984C4.77279 11.2404 5.13343 11.252 5.38587 11.3332C5.61428 11.4028 5.95087 11.6001 6.13119 11.7742C6.31151 11.9598 6.51587 12.2383 6.57598 12.4124C6.64811 12.598 6.70821 12.8881 6.70821 13.0854C6.70821 13.2826 6.55194 13.7352 6.3596 14.0949C6.023 14.7215 6.01098 14.8027 6.13119 15.3481C6.21534 15.6614 6.43172 16.1604 6.63608 16.4505C6.84045 16.729 7.20108 17.0887 7.42949 17.2395C7.69396 17.402 8.03055 17.5064 8.33108 17.4948C8.66768 17.4948 8.98023 17.3904 9.40098 17.1235C9.72555 16.9146 10.1463 16.5317 10.3266 16.2764C10.519 16.0211 10.7353 15.5454 10.8075 15.2321C10.9157 14.7679 10.9036 14.4894 10.7474 13.7816C10.6392 13.3059 10.3266 12.4704 10.0501 11.925C9.76162 11.3796 9.20864 10.4977 8.81193 9.95236C8.41523 9.41859 7.57374 8.47869 6.94864 7.86369C6.32353 7.24869 5.37385 6.44803 4.84492 6.09992C4.31598 5.7402 3.78704 5.35728 3.67885 5.22963C3.57066 5.1136 3.4264 4.8119 3.37832 4.55662C3.31821 4.30133 3.29417 3.93001 3.34226 3.74435C3.37832 3.54709 3.51055 3.24539 3.64279 3.07133C3.77502 2.88567 4.08757 2.642 4.36406 2.51435C4.62853 2.39832 4.97715 2.29388 5.14545 2.29388ZM30.33 16.6825C30.9431 16.6825 31.5081 16.7522 31.8928 16.8798C32.2414 16.9958 32.7463 17.3091 33.0949 17.6224C33.4555 17.9358 33.8042 18.3883 33.9725 18.748C34.1167 19.0845 34.273 19.6531 34.3211 20.0128C34.3812 20.5698 34.3451 20.7903 34.1408 21.2312C33.9364 21.6722 33.7681 21.8346 33.3714 22.0203C33.0829 22.1479 32.7102 22.2523 32.5299 22.2523C32.3376 22.2523 32.013 22.1827 31.8086 22.1015C31.5922 22.0087 31.2677 21.7882 31.0994 21.6025C30.9311 21.4169 30.7628 21.0456 30.7147 20.7671C30.6426 20.3261 30.6065 20.2797 30.306 20.3029C30.0535 20.3261 29.9093 20.4422 29.765 20.7439C29.5847 21.0804 29.5727 21.2312 29.6809 21.6141C29.777 21.9507 30.0535 22.2988 30.6786 22.8906C31.2316 23.4127 31.9048 23.9001 32.5539 24.2366C33.1189 24.5383 33.9845 25.0837 34.4774 25.4666C34.9702 25.8495 35.6194 26.4529 35.9199 26.8126C36.2204 27.1839 36.6652 27.7989 36.9177 28.1935C37.1701 28.5996 37.5308 29.2842 37.7231 29.7368C37.9154 30.1893 38.1559 31.048 38.2761 31.6514C38.4083 32.4172 38.4444 33.0555 38.3963 33.7401C38.3602 34.2854 38.24 35.0165 38.1438 35.3646C38.0477 35.7127 37.7952 36.3393 37.5909 36.757C37.3865 37.1748 37.086 37.6853 36.9056 37.9058C36.7253 38.1263 36.4008 38.3816 36.1964 38.4628C35.98 38.544 35.6194 38.6137 35.415 38.6137C35.1986 38.6137 34.826 38.5208 34.5976 38.4048C34.3692 38.3004 34.0566 38.0219 33.9003 37.8014C33.708 37.5229 33.6359 37.2328 33.6359 36.8383C33.6359 36.4205 33.7561 36.0724 34.1287 35.3878C34.5615 34.6104 34.6336 34.3667 34.6817 33.566C34.7298 32.9162 34.6817 32.4172 34.5495 31.9067C34.4413 31.5122 34.2009 30.8855 34.0085 30.5142C33.8282 30.1545 33.3954 29.5395 33.0709 29.1566C32.7463 28.7737 32.1813 28.2747 31.8206 28.0426C31.46 27.8106 30.7147 27.3696 30.1617 27.0563C29.6087 26.743 28.7432 26.128 28.2503 25.6755C27.7454 25.2229 27.1324 24.5499 26.8799 24.167C26.6154 23.784 26.3029 23.111 26.1586 22.6585C25.9663 22.0319 25.9182 21.6257 25.9543 20.9179C26.0024 20.1405 26.0745 19.8504 26.4471 19.1193C26.6876 18.6436 27.1203 18.0286 27.4088 17.7617C27.6974 17.4832 28.2383 17.1351 28.647 16.9726C29.2 16.7522 29.5847 16.6825 30.33 16.6825ZM22.3118 21.9158C23.0692 21.9042 23.2735 21.9507 23.9227 22.2756C24.4396 22.5424 24.8122 22.8441 25.1248 23.2387C25.3652 23.552 25.6417 24.0509 25.7259 24.341C25.798 24.6311 25.8701 25.0953 25.8701 25.3854C25.8701 25.6755 25.798 26.1396 25.7138 26.4297C25.6297 26.7198 25.4133 27.1607 25.233 27.416C25.0527 27.6713 24.68 28.0542 24.4035 28.2515C24.127 28.4604 23.6702 28.6924 23.3937 28.7621C23.1052 28.8317 22.6124 28.9013 22.2758 28.9013C21.9512 28.9013 21.4102 28.8201 21.0736 28.7156C20.7491 28.6112 20.2321 28.3327 19.9436 28.089C19.6551 27.8454 19.2945 27.4392 19.1382 27.1839C18.9819 26.9287 18.7896 26.4065 18.7175 26.0236C18.6093 25.4434 18.6213 25.1997 18.7896 24.5731C18.8978 24.1554 19.1622 23.5868 19.3786 23.2967C19.595 23.0066 19.9797 22.6353 20.2442 22.4728C20.4966 22.3104 20.8813 22.1131 21.0736 22.0435C21.278 21.9739 21.831 21.9158 22.3118 21.9158ZM21.3141 25.3622C21.3141 25.5826 21.4222 25.8263 21.6146 26.012C21.8069 26.2092 22.0474 26.3253 22.2758 26.3253C22.4921 26.3253 22.7446 26.2092 22.9009 26.0584C23.0852 25.8805 23.1774 25.6445 23.1774 25.3506C23.1774 25.014 23.1052 24.8748 22.8528 24.6891C22.6604 24.5499 22.396 24.4455 22.2517 24.4571C22.1075 24.4571 21.843 24.5847 21.6507 24.724C21.4343 24.9096 21.3261 25.1185 21.3141 25.3622ZM15.2433 27.1607C16.217 27.1839 16.5055 27.242 17.1667 27.5437C17.5995 27.7293 18.1645 28.0426 18.4169 28.2283C18.6814 28.4256 19.1262 28.8897 19.4267 29.2726C19.7513 29.7136 20.0398 30.2705 20.1961 30.7811C20.4004 31.4309 20.4365 31.8138 20.4004 32.6957C20.3524 33.6588 20.2922 33.9025 19.9196 34.6684C19.6431 35.237 19.2704 35.7591 18.8377 36.1653C18.441 36.5598 17.864 36.9427 17.347 37.1864C16.6979 37.4881 16.2892 37.5925 15.5438 37.6505C14.9909 37.6854 14.3177 37.6621 13.957 37.5809C13.6084 37.5113 13.0074 37.314 12.6347 37.1284C12.25 36.9543 11.6369 36.525 11.2763 36.1769C10.8556 35.7823 10.4468 35.2486 10.2184 34.7844C10.0141 34.3667 9.77364 33.6704 9.70151 33.2179C9.59332 32.6029 9.59332 32.2084 9.70151 31.5934C9.77364 31.1408 10.002 30.4678 10.1944 30.0849C10.3747 29.702 10.7474 29.1566 11.0118 28.8665C11.2643 28.5764 11.7692 28.1587 12.1298 27.9382C12.4904 27.7177 13.0795 27.4508 13.4401 27.3348C13.933 27.1839 14.4018 27.1375 15.2433 27.1607ZM13.5363 31.6514C13.4161 31.8719 13.3199 32.22 13.3199 32.4056C13.3199 32.5913 13.4161 32.9394 13.5363 33.1599C13.6445 33.3804 13.933 33.6821 14.1614 33.8329C14.3898 33.9721 14.7625 34.0882 14.9788 34.0882C15.1832 34.0882 15.5559 33.9954 15.7963 33.8793C16.0487 33.7749 16.3373 33.5544 16.4454 33.392C16.5657 33.2295 16.6979 32.9162 16.746 32.6957C16.8061 32.394 16.77 32.1388 16.5777 31.7326C16.4214 31.3961 16.169 31.0944 15.9405 30.9552C15.7121 30.8275 15.3275 30.7231 15.051 30.7231C14.7504 30.7231 14.4138 30.8159 14.1494 30.99C13.921 31.1292 13.6445 31.4309 13.5363 31.6514Z" fill="white"/>
</svg>
